<svg id="Livello_1" data-name="Livello 1" xmlns="http://www.w3.org/2000/svg" viewBox="0 0 763.47 944.76"><defs><style>.cls-1,.cls-2{fill:#01012b;}.cls-1{stroke:#fff;stroke-miterlimit:10;stroke-width:7px;}.cls-3{fill:#fff;}</style></defs><polyline class="cls-1" points="196.43 941.29 110.89 127.19 674.09 54.58 759.64 868.68 196.43 941.29"/><polygon class="cls-2" points="75.02 137.78 596.82 32.41 728.81 831.92 207.01 937.29 75.02 137.78"/><path class="cls-3" d="M594,36.55,724.8,829.15l-514.93,104L79,140.54,594,36.55m5.72-8.29L71,135,204.15,941.44,732.81,834.68,599.68,28.26Z" transform="translate(0 0)"/><polygon class="cls-2" points="4.16 151.5 517.69 4.38 700.88 791.38 187.35 938.5 4.16 151.5"/><path class="cls-3" d="M515.11,8.76l181.6,780.17L189.93,934.12,8.33,154,515.11,8.76M520.26,0,0,149.06,184.78,942.88,705,793.83,520.26,0Z" transform="translate(0 0)"/></svg>